<mxfile host="Electron" modified="2023-11-27T18:46:03.688Z" agent="Mozilla/5.0 (Windows NT 10.0; Win64; x64) AppleWebKit/537.36 (KHTML, like Gecko) draw.io/22.0.2 Chrome/114.0.5735.289 Electron/25.8.4 Safari/537.36" etag="Fyavtydm5QwXswy_Gf8Z" version="22.0.2" type="device">
  <diagram name="Page-1" id="5f0bae14-7c28-e335-631c-24af17079c00">
    <mxGraphModel dx="1300" dy="907" grid="1" gridSize="10" guides="1" tooltips="1" connect="1" arrows="1" fold="1" page="1" pageScale="1" pageWidth="1100" pageHeight="850" background="none" math="0" shadow="0">
      <root>
        <mxCell id="0" />
        <mxCell id="1" parent="0" />
        <mxCell id="39150e848f15840c-1" value="Bio Metric Scanner" style="verticalAlign=top;align=left;spacingTop=8;spacingLeft=2;spacingRight=12;shape=cube;size=10;direction=south;fontStyle=4;html=1;rounded=0;shadow=0;comic=0;labelBackgroundColor=none;strokeWidth=1;fontFamily=Verdana;fontSize=12" parent="1" vertex="1">
          <mxGeometry x="120" y="70" width="330" height="220" as="geometry" />
        </mxCell>
        <mxCell id="39150e848f15840c-2" value="Academic management System" style="verticalAlign=top;align=left;spacingTop=8;spacingLeft=2;spacingRight=12;shape=cube;size=10;direction=south;fontStyle=4;html=1;rounded=0;shadow=0;comic=0;labelBackgroundColor=none;strokeWidth=1;fontFamily=Verdana;fontSize=12" parent="1" vertex="1">
          <mxGeometry x="530" y="70" width="320" height="170" as="geometry" />
        </mxCell>
        <mxCell id="39150e848f15840c-3" value="Firebase Notifications" style="verticalAlign=top;align=left;spacingTop=8;spacingLeft=2;spacingRight=12;shape=cube;size=10;direction=south;fontStyle=4;html=1;rounded=0;shadow=0;comic=0;labelBackgroundColor=none;strokeWidth=1;fontFamily=Verdana;fontSize=12" parent="1" vertex="1">
          <mxGeometry x="370" y="410" width="260" height="150" as="geometry" />
        </mxCell>
        <mxCell id="39150e848f15840c-4" value="&amp;laquo;interface&amp;raquo;&lt;br&gt;&lt;b&gt;Name&lt;/b&gt;" style="html=1;rounded=0;shadow=0;comic=0;labelBackgroundColor=none;strokeWidth=1;fontFamily=Verdana;fontSize=12;align=center;" parent="1" vertex="1">
          <mxGeometry x="160" y="140" width="110" height="50" as="geometry" />
        </mxCell>
        <mxCell id="39150e848f15840c-5" value="Module" style="shape=component;align=left;spacingLeft=36;rounded=0;shadow=0;comic=0;labelBackgroundColor=none;strokeWidth=1;fontFamily=Verdana;fontSize=12;html=1;" parent="1" vertex="1">
          <mxGeometry x="310" y="135" width="120" height="60" as="geometry" />
        </mxCell>
        <mxCell id="39150e848f15840c-6" value="" style="ellipse;whiteSpace=wrap;html=1;rounded=0;shadow=0;comic=0;labelBackgroundColor=none;strokeWidth=1;fontFamily=Verdana;fontSize=12;align=center;" parent="1" vertex="1">
          <mxGeometry x="490" y="250" width="20" height="20" as="geometry" />
        </mxCell>
        <mxCell id="j2CmSqoanhOxPiRLrtrx-1" style="edgeStyle=orthogonalEdgeStyle;rounded=0;orthogonalLoop=1;jettySize=auto;html=1;exitX=0.5;exitY=1;exitDx=0;exitDy=0;endArrow=halfCircle;endFill=0;" edge="1" parent="1" source="39150e848f15840c-7" target="39150e848f15840c-9">
          <mxGeometry relative="1" as="geometry" />
        </mxCell>
        <mxCell id="j2CmSqoanhOxPiRLrtrx-6" style="edgeStyle=orthogonalEdgeStyle;rounded=0;orthogonalLoop=1;jettySize=auto;html=1;exitX=0;exitY=0.7;exitDx=0;exitDy=0;endArrow=halfCircle;endFill=0;" edge="1" parent="1" source="39150e848f15840c-7" target="39150e848f15840c-6">
          <mxGeometry relative="1" as="geometry">
            <Array as="points">
              <mxPoint x="500" y="177" />
            </Array>
          </mxGeometry>
        </mxCell>
        <mxCell id="39150e848f15840c-7" value="Module" style="shape=component;align=left;spacingLeft=36;rounded=0;shadow=0;comic=0;labelBackgroundColor=none;strokeWidth=1;fontFamily=Verdana;fontSize=12;html=1;" parent="1" vertex="1">
          <mxGeometry x="560" y="135" width="120" height="60" as="geometry" />
        </mxCell>
        <mxCell id="39150e848f15840c-8" value="&amp;laquo;interface&amp;raquo;&lt;br&gt;&lt;b&gt;Name&lt;/b&gt;" style="html=1;rounded=0;shadow=0;comic=0;labelBackgroundColor=none;strokeWidth=1;fontFamily=Verdana;fontSize=12;align=center;" parent="1" vertex="1">
          <mxGeometry x="720" y="140" width="110" height="50" as="geometry" />
        </mxCell>
        <mxCell id="39150e848f15840c-9" value="" style="ellipse;whiteSpace=wrap;html=1;rounded=0;shadow=0;comic=0;labelBackgroundColor=none;strokeWidth=1;fontFamily=Verdana;fontSize=12;align=center;" parent="1" vertex="1">
          <mxGeometry x="490" y="370" width="20" height="20" as="geometry" />
        </mxCell>
        <mxCell id="j2CmSqoanhOxPiRLrtrx-4" style="edgeStyle=orthogonalEdgeStyle;rounded=0;orthogonalLoop=1;jettySize=auto;html=1;exitX=0;exitY=0.3;exitDx=0;exitDy=0;endArrow=none;endFill=0;" edge="1" parent="1" source="39150e848f15840c-10" target="39150e848f15840c-9">
          <mxGeometry relative="1" as="geometry">
            <Array as="points">
              <mxPoint x="420" y="478" />
              <mxPoint x="420" y="380" />
            </Array>
          </mxGeometry>
        </mxCell>
        <mxCell id="39150e848f15840c-10" value="Module" style="shape=component;align=left;spacingLeft=36;rounded=0;shadow=0;comic=0;labelBackgroundColor=none;strokeWidth=1;fontFamily=Verdana;fontSize=12;html=1;" parent="1" vertex="1">
          <mxGeometry x="440" y="460" width="120" height="60" as="geometry" />
        </mxCell>
        <mxCell id="39150e848f15840c-14" style="edgeStyle=elbowEdgeStyle;rounded=0;html=1;labelBackgroundColor=none;startArrow=none;startFill=0;startSize=8;endArrow=none;endFill=0;endSize=16;fontFamily=Verdana;fontSize=12;" parent="1" source="39150e848f15840c-6" target="39150e848f15840c-5" edge="1">
          <mxGeometry relative="1" as="geometry" />
        </mxCell>
        <mxCell id="39150e848f15840c-15" style="edgeStyle=orthogonalEdgeStyle;rounded=0;html=1;labelBackgroundColor=none;startArrow=none;startFill=0;startSize=8;endArrow=open;endFill=0;endSize=16;fontFamily=Verdana;fontSize=12;dashed=1;" parent="1" source="39150e848f15840c-5" target="39150e848f15840c-4" edge="1">
          <mxGeometry relative="1" as="geometry">
            <Array as="points">
              <mxPoint x="350" y="220" />
              <mxPoint x="215" y="220" />
            </Array>
          </mxGeometry>
        </mxCell>
        <mxCell id="39150e848f15840c-16" style="edgeStyle=orthogonalEdgeStyle;rounded=0;html=1;dashed=1;labelBackgroundColor=none;startArrow=none;startFill=0;startSize=8;endArrow=open;endFill=0;endSize=16;fontFamily=Verdana;fontSize=12;" parent="1" source="39150e848f15840c-7" target="39150e848f15840c-8" edge="1">
          <mxGeometry relative="1" as="geometry" />
        </mxCell>
        <mxCell id="39150e848f15840c-17" style="edgeStyle=orthogonalEdgeStyle;rounded=0;html=1;labelBackgroundColor=none;startArrow=none;startFill=0;startSize=8;endArrow=none;endFill=0;endSize=16;fontFamily=Verdana;fontSize=12;" parent="1" source="39150e848f15840c-3" target="39150e848f15840c-2" edge="1">
          <mxGeometry relative="1" as="geometry">
            <Array as="points">
              <mxPoint x="695" y="485" />
            </Array>
          </mxGeometry>
        </mxCell>
        <mxCell id="39150e848f15840c-18" style="edgeStyle=orthogonalEdgeStyle;rounded=0;html=1;labelBackgroundColor=none;startArrow=none;startFill=0;startSize=8;endArrow=none;endFill=0;endSize=16;fontFamily=Verdana;fontSize=12;" parent="1" source="39150e848f15840c-3" target="39150e848f15840c-1" edge="1">
          <mxGeometry relative="1" as="geometry">
            <Array as="points">
              <mxPoint x="285" y="485" />
            </Array>
          </mxGeometry>
        </mxCell>
      </root>
    </mxGraphModel>
  </diagram>
</mxfile>
